<?xml version="1.0" standalone="no"?>
<!DOCTYPE svg PUBLIC "-//W3C//DTD SVG 20010904//EN"
 "http://www.w3.org/TR/2001/REC-SVG-20010904/DTD/svg10.dtd">
<svg version="1.0" xmlns="http://www.w3.org/2000/svg"
 width="512.000000pt" height="512.000000pt" viewBox="0 0 512.000000 512.000000"
 preserveAspectRatio="xMidYMid meet">
<metadata>
Created by potrace 1.11, written by Peter Selinger 2001-2013
</metadata>
<g transform="translate(0.000000,512.000000) scale(0.100000,-0.100000)"
fill="#000000" stroke="none">
<path d="M2280 5105 c-316 -38 -588 -120 -865 -260 -269 -136 -446 -264 -665
-484 -263 -265 -450 -552 -578 -891 -234 -619 -220 -1314 38 -1912 341 -793
1049 -1359 1889 -1512 215 -39 344 -50 540 -43 378 13 691 89 1028 247 547
257 1010 738 1248 1295 94 219 165 485 195 725 15 125 13 470 -5 602 -71 542
-286 1009 -651 1413 -162 179 -378 357 -585 480 -56 33 -346 175 -358 175 -5
0 -31 9 -57 20 -136 59 -439 128 -648 149 -142 14 -393 12 -526 -4z m1455
-1036 c53 -13 101 -59 115 -108 8 -25 10 -474 8 -1423 l-3 -1387 -21 -28 c-11
-15 -36 -38 -54 -50 l-33 -23 -1180 0 -1179 0 -38 21 c-21 12 -47 38 -59 59
l-21 38 0 1180 c0 810 3 1190 11 1209 10 28 417 445 473 485 15 12 42 24 60
28 52 13 1871 12 1921 -1z"/>
<path d="M1762 3587 l-162 -162 0 -1023 0 -1022 965 0 965 0 0 1185 0 1185
-803 0 -802 0 -163 -163z m1536 -644 l3 -143 -736 0 -735 0 0 138 c0 76 3 142
7 145 3 4 333 6 732 5 l726 -3 3 -142z m0 -545 l-3 -143 -732 -3 -733 -2 0
145 0 145 735 0 736 0 -3 -142z m2 -548 l0 -140 -735 0 -735 0 0 140 0 140
735 0 735 0 0 -140z"/>
</g>
</svg>
